<?xml version="1.0" encoding="utf-8"?>
<!-- Generator: Adobe Illustrator 18.1.1, SVG Export Plug-In . SVG Version: 6.00 Build 0)  -->
<svg version="1.1" xmlns="http://www.w3.org/2000/svg" xmlns:xlink="http://www.w3.org/1999/xlink" x="0px" y="0px" width="864px"
	 height="54px" viewBox="0 0 864 54" enable-background="new 0 0 864 54" xml:space="preserve">
<g id="Layer_2">
</g>
<g id="Layer_1">
	<path fill="#363537" d="M51.4,27.8c0.8,0.2,1.6,0.6,2.2,1.1c0.9,0.7,1.5,1.8,1.5,3.2c0,2.3-1.6,4.6-6.3,4.7c-2.3,0-4.6,0-6.8,0
		c-0.1,0-0.5,0-0.5-0.3c0-0.2,0.1-0.2,0.3-0.3c0.4-0.1,0.7-0.1,1-0.3c0.8-0.4,0.9-1.1,0.9-2.1c0-3.7,0-7.5,0-11.2c0-0.1,0-0.1,0-0.2
		c0-0.9-0.1-1.6-0.9-2.1c-0.3-0.2-0.6-0.2-1-0.3c-0.1,0-0.3-0.1-0.3-0.3c0-0.3,0.3-0.3,0.4-0.3c2.2,0,4.4,0,6.6,0
		c1.4,0,5.6,0.1,5.6,3.9c0,1.7-1.1,3.1-2.7,3.8C51.1,27.3,51.1,27.7,51.4,27.8z"/>
	<path fill="#363537" d="M137,29.6c0,1.4,0,2.8,0,4.2c0,1.1,0.2,1.7,0.9,2.1c0.7,0.3,1.2,0.2,1.4,0.4c0.1,0.1,0.1,0.5-0.5,0.5
		c-1.9,0-3.8,0-5.7,0c-0.5,0-0.6-0.3-0.5-0.5c0.1-0.2,0.6-0.1,1.3-0.4c0.9-0.4,0.9-1.1,0.9-2.1c0-3.7,0-7.5,0-11.2
		c0-0.1,0-0.1,0-0.2c0-0.9,0-1.6-0.9-2.1c-0.6-0.3-1.1-0.2-1.3-0.4c-0.1-0.2,0-0.5,0.5-0.5c2.4,0,4.7,0,7.1,0c3.4,0,5.8,1.7,5.8,4.6
		c0,3.6-3.6,5.4-7,5.4c-0.6,0-1.1-0.1-1.6-0.2C137.2,29.2,137,29.4,137,29.6z"/>
	<path fill="#363537" d="M171.5,28.9c0,1.6,0,3.2,0,4.9c0,0.9,0,1.6,0.9,2.1c0.6,0.3,1.1,0.2,1.3,0.4c0.1,0.2,0,0.5-0.5,0.5
		c-1.8,0-3.7,0-5.5,0c-0.5,0-0.6-0.3-0.5-0.5c0.1-0.2,0.6-0.1,1.3-0.4c0.9-0.4,0.9-1.1,0.9-2.1c0-3.7,0-7.5,0-11.2
		c0-0.1,0-0.1,0-0.2c0-0.9,0-1.6-0.9-2.1c-0.6-0.3-1.1-0.2-1.3-0.4c-0.1-0.2,0-0.5,0.5-0.5c2.2,0,4.4,0,6.5,0c1.2,0,2.9,0.2,4,1
		c1,0.6,1.9,1.8,1.9,3.5c0,1.2-0.6,2.6-1.9,3.5c-0.7,0.5-1.7,0.8-2.6,0.9c-0.2,0-0.3,0.2-0.3,0.3c0,0.2,0.1,0.3,0.2,0.4
		c1,0.4,1.9,1,2.6,1.7c1.2,1.2,2.1,2.9,2.7,4c0.4,0.7,0.8,1.1,1.3,1.5c0.4,0.3,0.8,0.4,1.1,0.5c0.1,0,0.2,0.1,0.2,0.2
		c0,0.3-0.6,0.3-1.1,0.3c-3,0-3.9-1.5-4.7-3c-0.7-1.3-1.3-2.8-2.5-4c-0.9-1-1.9-1.6-3.3-1.6C171.7,28.6,171.5,28.7,171.5,28.9z"/>
	<path fill="#363537" d="M64.8,19.6c0.5,0,0.6,0.3,0.5,0.5c-0.1,0.2-0.6,0.1-1.3,0.4c-0.9,0.4-0.9,1.1-0.9,2.1c0,3.7,0,7.5,0,11.2
		c0,1,0,1.7,0.9,2.1c0.6,0.3,1.1,0.2,1.3,0.4c0.1,0.2,0,0.5-0.5,0.5c-1.8,0-3.7,0-5.5,0c-0.5,0-0.6-0.3-0.5-0.5
		c0.1-0.2,0.6-0.1,1.3-0.4c0.9-0.4,0.9-1.1,0.9-2.1c0-3.7,0-7.5,0-11.2c0-0.9,0-1.6-0.9-2.1c-0.6-0.3-1.1-0.2-1.3-0.4
		c-0.1-0.2,0-0.5,0.5-0.5C61.1,19.6,62.9,19.6,64.8,19.6z"/>
	<path fill="#FFFFFF" stroke="#363537" stroke-miterlimit="10" d="M45.9,34.5c0-1.8,0-3.7,0-5.5c0-0.9,1.2-1,1.7-1
		c3.5,0,5.1,2.3,5.1,4.2c0,1.9-1.3,3.7-3.7,3.7c-1.2,0-2.2-0.5-3-1.2C45.9,34.7,45.9,34.6,45.9,34.5z"/>
	<path fill="#FFFFFF" stroke="#363537" stroke-miterlimit="10" d="M45.9,26.7c0-1.9,0-3.8,0-5.6c0-0.5,0.5-0.8,2-0.8
		c0.9,0,2,0,2.9,0.9c0.5,0.5,1,1.3,1,2.4c0,1.5-1,3.7-4,3.7c-0.6,0-1.1-0.1-1.6-0.2C46,27,45.9,26.9,45.9,26.7z"/>
	<path fill="#363537" d="M6.6,27.7c1.4,0.3,2.6,1,3.5,1.8c1,0.9,1.6,2,2.6,3.5c0.8,1.3,1.4,2,2,2.5c1.4,1.1,2.3,0.4,2.3,0.9
		c0,0.4-1.4,0.8-2.7,0.8c-1,0-1.7-0.3-2.6-1.2c-0.9-0.9-1.5-2.4-2.2-3.6c-0.7-1.3-1.5-2.6-2.7-3.5c-0.7-0.5-1.3-0.7-1.9-0.8
		c-0.2,0-0.4,0.1-0.4,0.4c0,1.8,0,3.5,0,5.3c0,0.9,0,1.6,0.9,2.1c0.6,0.3,1.1,0.2,1.3,0.4c0.1,0.2,0,0.5-0.5,0.5c-1.8,0-3.7,0-5.5,0
		c-0.5,0-0.6-0.3-0.5-0.5c0.1-0.2,0.6-0.1,1.3-0.4c0.9-0.4,0.9-1.1,0.9-2.1c0-3.7,0-7.5,0-11.2c0-0.9,0-1.6-0.9-2.1
		c-0.6-0.3-1.1-0.2-1.3-0.4c-0.1-0.2,0-0.5,0.5-0.5c1.8,0,3.7,0,5.5,0c0.5,0,0.6,0.3,0.5,0.5c-0.1,0.2-0.6,0.1-1.3,0.4
		c-0.9,0.4-0.9,1.1-0.9,2.1c0,1.4,0,2.7,0,4.1c0,0.3,0.3,0.5,0.6,0.3C6,26.4,7.2,25.5,8.7,24c2-1.9,2-2.6,2-2.8
		c0-0.3-0.3-0.7-0.6-0.8c-0.4-0.2-0.6-0.1-0.9-0.2C9.1,20.1,9,20,9,19.9c0-0.3,0.4-0.2,0.5-0.2c1.9,0,3.8,0,5.8,0
		c0.3,0,0.3,0.1,0.3,0.2c0,0.3-0.2,0.4-0.4,0.4c-0.7,0.2-1.2,0.4-2.2,1.2c-0.4,0.3-0.9,0.7-1.3,1c-1,0.8-0.5,0.5-3.1,2.8
		c-0.7,0.6-1.3,1.2-2.1,1.8C6.3,27.3,6.3,27.6,6.6,27.7z"/>
	<path fill="#363537" d="M191.3,36.3c0.1,0.2,0,0.5-0.5,0.5c-1.8,0-3.7,0-5.5,0c-0.5,0-0.6-0.3-0.5-0.5c0.1-0.2,0.6-0.1,1.3-0.4
		c0.9-0.4,0.9-1.1,0.9-2.1c0-3.7,0-7.5,0-11.2c0-0.9,0-1.6-0.9-2.1c-0.6-0.3-1.1-0.2-1.3-0.4c-0.1-0.2,0-0.5,0.5-0.5
		c1.8,0,3.7,0,5.5,0c0.5,0,0.6,0.3,0.5,0.5c-0.1,0.2-0.6,0.1-1.3,0.4c-0.9,0.4-0.9,1.1-0.9,2.1c0,3.7,0,7.5,0,11.2
		c0,1,0,1.7,0.9,2.1C190.7,36.2,191.2,36.1,191.3,36.3z"/>
	<path fill="#363537" d="M35,34.5c-1.9,1.9-4.1,2.8-6.9,2.8c-3.8,0-6.1-1.5-7.4-3.1c-1.1-1.3-2.2-3.2-2.2-6c0-3.4,1.6-5.5,2.9-6.8
		c2.3-2.1,4.9-2.5,6.7-2.5c3.3,0,5.7,1.1,7.3,3c1.6,1.7,2.3,3.9,2.3,6C37.7,31.1,36.2,33.3,35,34.5z"/>
	<path fill="#FFFFFF" stroke="#363537" stroke-miterlimit="10" d="M33.4,22.9c-1.5-2.2-3.3-3.1-5.6-3.1c-2.6,0-4.3,1.4-5.2,2.5
		c-1,1.4-1.6,3.4-1.6,5.1c0,2.1,0.7,4.6,2,6.3c1.4,1.9,3.5,2.8,5.5,2.8c1.7,0,3.9-0.6,5.3-3.1c0.8-1.4,1.2-3,1.2-4.5
		C35.1,27.3,34.9,25,33.4,22.9z"/>
	<path fill="#363537" d="M89.1,28.4c-3.2,0-6.4,0-9.6,0c-0.2,0-0.4,0.2-0.4,0.4c0,1.7,0,3.4,0,5.1c0,0.9,0,1.6,0.9,2.1
		c0.6,0.3,1.1,0.2,1.3,0.4c0.1,0.2,0,0.5-0.5,0.5c-1.8,0-3.7,0-5.5,0c-0.5,0-0.6-0.3-0.5-0.5c0.1-0.2,0.6-0.1,1.3-0.4
		c0.9-0.4,0.9-1.1,0.9-2.1c0-3.7,0-7.5,0-11.2c0-0.9,0-1.6-0.9-2.1c-0.6-0.3-1.1-0.2-1.3-0.4c-0.1-0.2,0-0.5,0.5-0.5
		c1.8,0,3.7,0,5.5,0c0.5,0,0.6,0.3,0.5,0.5c-0.1,0.2-0.6,0.1-1.3,0.4c-0.9,0.4-0.9,1.1-0.9,2.1c0,1.5,0,2.9,0,4.4
		c0,0.2,0.2,0.4,0.4,0.4c3.2,0,6.4,0,9.6,0c0.2,0,0.4-0.2,0.4-0.4c0-1.5,0-2.9,0-4.4c0-0.9,0-1.6-0.9-2.1c-0.6-0.3-1.1-0.2-1.3-0.4
		c-0.1-0.2,0-0.5,0.5-0.5c1.8,0,3.7,0,5.5,0c0.5,0,0.6,0.3,0.5,0.5c-0.1,0.2-0.6,0.1-1.3,0.4c-0.9,0.4-0.9,1.1-0.9,2.1
		c0,3.7,0,7.5,0,11.2c0,0.9,0,1.6,0.9,2.1c0.6,0.3,1.1,0.2,1.3,0.4c0.1,0.2,0,0.5-0.5,0.5c-1.8,0-3.7,0-5.5,0
		c-0.5,0-0.6-0.3-0.5-0.5c0.1-0.2,0.6-0.1,1.3-0.4c0.9-0.4,0.9-1.1,0.9-2.1c0-1.7,0-3.4,0-5.1C89.5,28.5,89.3,28.4,89.1,28.4z"/>
	<path fill="#363537" d="M107.1,30.1c-2,0-4,0-6,0c-0.1,0-0.3,0.1-0.3,0.2c-0.3,0.8-0.6,1.6-0.9,2.3c-0.4,1-0.4,1.3-0.4,1.7
		c0,0.5,0.1,1.1,0.9,1.5c0.3,0.2,0.6,0.3,0.8,0.3c0.1,0,0.2,0.1,0.2,0.3c0,0.2-0.3,0.2-0.5,0.2c-1.7,0-3.4,0-5.2,0
		c-0.1,0-0.4,0-0.4-0.3c0-0.1,0.1-0.2,0.3-0.3c0.4-0.2,0.7-0.3,1.2-0.7c0.4-0.4,0.9-1.2,1.2-1.7c2.1-4.8,4.2-9.6,6.3-14.4
		c0.1-0.3,0.3-0.6,0.6-0.6c0.2,0,0.4,0.3,0.6,0.6c2.2,4.9,4.4,9.8,6.6,14.7c0.2,0.4,0.6,1,0.8,1.3c0.3,0.3,0.5,0.6,0.9,0.8
		c0.3,0.1,0.4,0.1,0.4,0.4c0,0.1-0.1,0.2-0.5,0.2c-1.7,0-3.5,0-5.2,0c-0.3,0-0.7,0-0.7-0.3c0-0.2,0.1-0.2,0.2-0.3
		c0.4-0.2,0.8-0.2,1.1-0.6c0.5-0.5,0.3-1,0.2-1.3c-0.6-1.3-1.1-2.7-1.7-4C107.3,30.2,107.2,30.1,107.1,30.1z"/>
	<path fill="#FFFFFF" stroke="#363537" stroke-miterlimit="10" d="M104.4,22.8c0.8,1.8,1.5,3.6,2.3,5.3c0.1,0.2-0.1,0.5-0.3,0.5
		c-1.5,0-3,0-4.6,0c-0.3,0-0.4-0.3-0.3-0.5c0.8-1.8,1.5-3.6,2.3-5.3C103.9,22.5,104.3,22.5,104.4,22.8z"/>
	<path fill="#FFFFFF" stroke="#363537" stroke-miterlimit="10" d="M137,27.5c0-1.8,0-3.7,0-5.5c0-0.7,0.2-1.8,1.9-1.8
		c2.8,0,4.8,1.9,4.8,4.6c0,2.4-1.7,3.9-4,3.9c-0.6,0-1.6-0.1-2.6-0.8C137.1,27.7,137,27.6,137,27.5z"/>
	<path fill="#363537" d="M120.2,34.9c1,0.9,2.3,1.1,3.3,1.1c1,0,2-0.2,3-0.9c1-0.7,1.6-1.8,2.1-2.8c0.1-0.3,0.3-0.8,0.7-0.8
		c0.1,0,0.5,0.1,0.5,0.7c-0.2,1.3-0.5,2.7-0.7,4c0,0.1,0,0.2-0.1,0.3c-0.1,0.3-0.2,0.4-0.5,0.4c-0.9,0-1.7,0-2.6,0
		c-3.2,0-6.4,0-9.7,0c-0.5,0-0.6-0.3-0.5-0.5c0.1-0.2,0.6-0.1,1.3-0.4c0.9-0.4,0.9-1.1,0.9-2.1c0-3.7,0-7.5,0-11.2
		c0-0.9,0-1.6-0.9-2.1c-0.6-0.3-1.1-0.2-1.3-0.4c-0.1-0.2,0-0.5,0.5-0.5c1.9,0,3.9,0,5.8,0c0.6,0,0.5,0.4,0.5,0.5
		c-0.2,0.3-0.6,0-1.5,0.4c-0.9,0.5-0.9,1.1-0.9,2.1c0,4,0,8,0,12C120.1,34.7,120.2,34.8,120.2,34.9z"/>
	<path fill="#363537" d="M153.8,34.9c1.3,1,2.6,1.1,3.9,1.1c0.9,0,1.7,0,2.9-1c0.7-0.5,1.3-1.3,1.6-2.1c0.2-0.5,0.3-0.8,0.7-0.8
		c0.4,0,0.4,0.4,0.4,0.5c-0.2,1.2-0.3,2.3-0.5,3.5c0,0.1,0,0.2-0.1,0.3c-0.1,0.3-0.2,0.4-0.5,0.4c-0.9,0-1.7,0-2.6,0
		c-3.3,0-6.6,0-9.9,0c-0.5,0-0.6-0.3-0.5-0.5c0.1-0.2,0.6-0.1,1.3-0.4c0.9-0.4,0.9-1.1,0.9-2.1c0-3.7,0-7.5,0-11.2
		c0-0.9,0-1.6-0.9-2.1c-0.6-0.3-1.1-0.2-1.3-0.4c-0.1-0.2,0-0.5,0.5-0.5c3,0,6,0,9,0c0.9,0,1.8,0,2.7,0c0.1,0,0.2,0.1,0.3,0.2
		c0,0,0,0,0,0.1c0,0,0,0,0,0c0.2,0.9,0.3,1.8,0.5,2.7c0.1,0.3,0.2,0.8,0.2,1c0,0.4-0.1,0.7-0.4,0.7c-0.2,0-0.3-0.1-0.6-0.5
		c-0.3-0.5-0.8-1.2-1.1-1.7c-1-1.2-2.2-1.6-3.1-1.6c-0.6,0-1.2,0-1.8,0c-1.6,0-1.7,1.1-1.7,1.7c0,1.6,0,3.1,0,4.7
		c0,0.2,0.2,0.4,0.4,0.4c0.6,0,1.3,0,1.9,0c1.1,0,2.3-0.6,3-1.6c0.3-0.5,0.3-0.6,0.5-0.9c0-0.1,0.1-0.2,0.3-0.2
		c0.2,0,0.3,0.1,0.4,0.3c0,1.8,0,3.7,0,5.5c0,0.2-0.1,0.3-0.4,0.3c-0.1,0-0.2,0-0.3-0.2c-0.2-0.3-0.1-0.5-0.5-0.9
		c-0.7-1-1.9-1.6-3-1.6c-0.6,0-1.3,0-1.9,0c-0.2,0-0.4,0.2-0.4,0.4c0,2.1,0,4.2,0,6.3C153.7,34.7,153.7,34.8,153.8,34.9z"/>
	<path fill="#FFFFFF" stroke="#363537" stroke-miterlimit="10" d="M171.5,27.4c0-1.8,0-3.6,0-5.5c0-0.7,0.1-1.7,1.8-1.7
		c3,0,4.4,1.4,4.4,3.4c0,1.1-0.4,2.1-1.4,2.9c-1.2,1-2.7,1.3-4.4,1.2C171.7,27.7,171.5,27.6,171.5,27.4z"/>
	<path fill="#363537" d="M199.8,19.8c3.3,4.2,6.7,8.4,10,12.6c0.2,0.3,0.6,0.1,0.6-0.2c0-3.2,0-6.4,0-9.5c0-0.9-0.2-1.7-0.9-2.1
		c-0.6-0.4-1.1-0.2-1.2-0.4c-0.1-0.2,0-0.5,0.5-0.5c1.5,0,3.1,0,4.6,0c0.5,0,0.6,0.3,0.5,0.5c-0.1,0.2-0.6,0.1-1.2,0.4
		c-0.5,0.3-0.9,0.8-0.9,2.1c-0.1,4.6-0.2,9.2-0.2,13.8c0,0.6-0.3,0.8-0.6,0.8c-0.3,0-0.5-0.3-0.6-0.5c-3.4-4.3-6.8-8.5-10.2-12.8
		c-0.2-0.3-0.6-0.1-0.6,0.2c0,3.2,0,6.4,0,9.6c0,1.4,0.5,1.9,0.9,2.1c0.6,0.3,1.1,0.2,1.2,0.4c0.1,0.2,0,0.5-0.5,0.5
		c-1.5,0-3.1,0-4.6,0c-0.5,0-0.6-0.3-0.5-0.5c0.2-0.2,0.6,0,1.2-0.4c0.7-0.4,0.9-1.3,0.9-2.1c0.1-3.8,0.2-7.6,0.2-11.5
		c0-0.1,0-0.2-0.1-0.2c-0.4-0.5-1-1-1.9-1.4c-0.8-0.4-1-0.3-1.4-0.5c-0.1-0.1-0.2-0.2-0.2-0.3c0-0.1,0.1-0.3,0.4-0.3
		c1.4,0,2.7,0,4.1,0C199.6,19.6,199.7,19.7,199.8,19.8z"/>
</g>
</svg>
