<?xml version="1.0" encoding="utf-8"?>
<!-- Generator: Adobe Illustrator 18.1.1, SVG Export Plug-In . SVG Version: 6.00 Build 0)  -->
<svg version="1.1" id="Layer_1" xmlns="http://www.w3.org/2000/svg" xmlns:xlink="http://www.w3.org/1999/xlink" x="0px" y="0px"
	 viewBox="0 0 864 95" enable-background="new 0 0 864 95" xml:space="preserve">
<path d="M51.4,35.3c0.8,0.2,1.6,0.6,2.2,1.1c0.9,0.7,1.5,1.8,1.5,3.2c0,2.3-1.6,4.6-6.3,4.7c-2.3,0-4.6,0-6.8,0
	c-0.1,0-0.5,0-0.5-0.3c0-0.2,0.1-0.2,0.3-0.3c0.4-0.1,0.7-0.1,1-0.3c0.8-0.4,0.9-1.1,0.9-2.1c0-3.7,0-7.5,0-11.2c0-0.1,0-0.1,0-0.2
	c0-0.9-0.1-1.6-0.9-2.1c-0.3-0.2-0.6-0.2-1-0.3c-0.1,0-0.3-0.1-0.3-0.3c0-0.3,0.3-0.3,0.4-0.3c2.2,0,4.4,0,6.6,0
	c1.4,0,5.6,0.1,5.6,3.9c0,1.7-1.1,3.1-2.7,3.8C51.1,34.8,51.1,35.2,51.4,35.3z"/>
<path d="M137,37.1c0,1.4,0,2.8,0,4.2c0,1.1,0.2,1.7,0.9,2.1c0.7,0.3,1.2,0.2,1.4,0.4c0.1,0.1,0.1,0.5-0.5,0.5c-1.9,0-3.8,0-5.7,0
	c-0.5,0-0.6-0.3-0.5-0.5c0.1-0.2,0.6-0.1,1.3-0.4c0.9-0.4,0.9-1.1,0.9-2.1c0-3.7,0-7.5,0-11.2c0-0.1,0-0.1,0-0.2
	c0-0.9,0-1.6-0.9-2.1c-0.6-0.3-1.1-0.2-1.3-0.4c-0.1-0.2,0-0.5,0.5-0.5c2.4,0,4.7,0,7.1,0c3.4,0,5.8,1.7,5.8,4.6
	c0,3.6-3.6,5.4-7,5.4c-0.6,0-1.1-0.1-1.6-0.2C137.2,36.7,137,36.9,137,37.1z"/>
<path d="M171.5,36.4c0,1.6,0,3.2,0,4.9c0,0.9,0,1.6,0.9,2.1c0.6,0.3,1.1,0.2,1.3,0.4c0.1,0.2,0,0.5-0.5,0.5c-1.8,0-3.7,0-5.5,0
	c-0.5,0-0.6-0.3-0.5-0.5c0.1-0.2,0.6-0.1,1.3-0.4c0.9-0.4,0.9-1.1,0.9-2.1c0-3.7,0-7.5,0-11.2c0-0.1,0-0.1,0-0.2
	c0-0.9,0-1.6-0.9-2.1c-0.6-0.3-1.1-0.2-1.3-0.4c-0.1-0.2,0-0.5,0.5-0.5c2.2,0,4.4,0,6.5,0c1.2,0,2.9,0.2,4,1c1,0.6,1.9,1.8,1.9,3.5
	c0,1.2-0.6,2.6-1.9,3.5c-0.7,0.5-1.7,0.8-2.6,0.9c-0.2,0-0.3,0.2-0.3,0.3c0,0.2,0.1,0.3,0.2,0.4c1,0.4,1.9,1,2.6,1.7
	c1.2,1.2,2.1,2.9,2.7,4c0.4,0.7,0.8,1.1,1.3,1.5c0.4,0.3,0.8,0.4,1.1,0.5c0.1,0,0.2,0.1,0.2,0.2c0,0.3-0.6,0.3-1.1,0.3
	c-3,0-3.9-1.5-4.7-3c-0.7-1.3-1.3-2.8-2.5-4c-0.9-1-1.9-1.6-3.3-1.6C171.7,36.1,171.5,36.2,171.5,36.4z"/>
<path d="M64.8,27.1c0.5,0,0.6,0.3,0.5,0.5c-0.1,0.2-0.6,0.1-1.3,0.4c-0.9,0.4-0.9,1.1-0.9,2.1c0,3.7,0,7.5,0,11.2c0,1,0,1.7,0.9,2.1
	c0.6,0.3,1.1,0.2,1.3,0.4c0.1,0.2,0,0.5-0.5,0.5c-1.8,0-3.7,0-5.5,0c-0.5,0-0.6-0.3-0.5-0.5c0.1-0.2,0.6-0.1,1.3-0.4
	c0.9-0.4,0.9-1.1,0.9-2.1c0-3.7,0-7.5,0-11.2c0-0.9,0-1.6-0.9-2.1c-0.6-0.3-1.1-0.2-1.3-0.4c-0.1-0.2,0-0.5,0.5-0.5
	C61.1,27.1,62.9,27.1,64.8,27.1z"/>
<path fill="#FFFFFF" stroke="#000000" stroke-miterlimit="10" d="M45.9,42c0-1.8,0-3.7,0-5.5c0-0.9,1.2-1,1.7-1
	c3.5,0,5.1,2.3,5.1,4.2c0,1.9-1.3,3.7-3.7,3.7c-1.2,0-2.2-0.5-3-1.2C45.9,42.2,45.9,42.1,45.9,42z"/>
<path fill="#FFFFFF" stroke="#000000" stroke-miterlimit="10" d="M45.9,34.2c0-1.9,0-3.8,0-5.6c0-0.5,0.5-0.8,2-0.8
	c0.9,0,2,0,2.9,0.9c0.5,0.5,1,1.3,1,2.4c0,1.5-1,3.7-4,3.7c-0.6,0-1.1-0.1-1.6-0.2C46,34.5,45.9,34.4,45.9,34.2z"/>
<path d="M6.6,35.2c1.4,0.3,2.6,1,3.5,1.8c1,0.9,1.6,2,2.6,3.5c0.8,1.3,1.4,2,2,2.5c1.4,1.1,2.3,0.4,2.3,0.9c0,0.4-1.4,0.8-2.7,0.8
	c-1,0-1.7-0.3-2.6-1.2c-0.9-0.9-1.5-2.4-2.2-3.6c-0.7-1.3-1.5-2.6-2.7-3.5c-0.7-0.5-1.3-0.7-1.9-0.8c-0.2,0-0.4,0.1-0.4,0.4
	c0,1.8,0,3.5,0,5.3c0,0.9,0,1.6,0.9,2.1c0.6,0.3,1.1,0.2,1.3,0.4c0.1,0.2,0,0.5-0.5,0.5c-1.8,0-3.7,0-5.5,0c-0.5,0-0.6-0.3-0.5-0.5
	c0.1-0.2,0.6-0.1,1.3-0.4c0.9-0.4,0.9-1.1,0.9-2.1c0-3.7,0-7.5,0-11.2c0-0.9,0-1.6-0.9-2.1c-0.6-0.3-1.1-0.2-1.3-0.4
	c-0.1-0.2,0-0.5,0.5-0.5c1.8,0,3.7,0,5.5,0c0.5,0,0.6,0.3,0.5,0.5c-0.1,0.2-0.6,0.1-1.3,0.4c-0.9,0.4-0.9,1.1-0.9,2.1
	c0,1.4,0,2.7,0,4.1c0,0.3,0.3,0.5,0.6,0.3C6,33.9,7.2,33,8.7,31.5c2-1.9,2-2.6,2-2.8c0-0.3-0.3-0.7-0.6-0.8
	c-0.4-0.2-0.6-0.1-0.9-0.2C9.1,27.6,9,27.5,9,27.4c0-0.3,0.4-0.2,0.5-0.2c1.9,0,3.8,0,5.8,0c0.3,0,0.3,0.1,0.3,0.2
	c0,0.3-0.2,0.4-0.4,0.4C14.5,28,14,28.2,13.1,29c-0.4,0.3-0.9,0.7-1.3,1c-1,0.8-0.5,0.5-3.1,2.8c-0.7,0.6-1.3,1.2-2.1,1.8
	C6.3,34.8,6.3,35.1,6.6,35.2z"/>
<path d="M191.3,43.8c0.1,0.2,0,0.5-0.5,0.5c-1.8,0-3.7,0-5.5,0c-0.5,0-0.6-0.3-0.5-0.5c0.1-0.2,0.6-0.1,1.3-0.4
	c0.9-0.4,0.9-1.1,0.9-2.1c0-3.7,0-7.5,0-11.2c0-0.9,0-1.6-0.9-2.1c-0.6-0.3-1.1-0.2-1.3-0.4c-0.1-0.2,0-0.5,0.5-0.5
	c1.8,0,3.7,0,5.5,0c0.5,0,0.6,0.3,0.5,0.5c-0.1,0.2-0.6,0.1-1.3,0.4c-0.9,0.4-0.9,1.1-0.9,2.1c0,3.7,0,7.5,0,11.2c0,1,0,1.7,0.9,2.1
	C190.7,43.7,191.2,43.6,191.3,43.8z"/>
<path d="M35,42c-1.9,1.9-4.1,2.8-6.9,2.8c-3.8,0-6.1-1.5-7.4-3.1c-1.1-1.3-2.2-3.2-2.2-6c0-3.4,1.6-5.5,2.9-6.8
	c2.3-2.1,4.9-2.5,6.7-2.5c3.3,0,5.7,1.1,7.3,3c1.6,1.7,2.3,3.9,2.3,6C37.7,38.6,36.2,40.8,35,42z"/>
<path fill="#FFFFFF" stroke="#000000" stroke-miterlimit="10" d="M33.4,30.4c-1.5-2.2-3.3-3.1-5.6-3.1c-2.6,0-4.3,1.4-5.2,2.5
	c-1,1.4-1.6,3.4-1.6,5.1c0,2.1,0.7,4.6,2,6.3c1.4,1.9,3.5,2.8,5.5,2.8c1.7,0,3.9-0.6,5.3-3.1c0.8-1.4,1.2-3,1.2-4.5
	C35.1,34.8,34.9,32.5,33.4,30.4z"/>
<path d="M89.1,35.9c-3.2,0-6.4,0-9.6,0c-0.2,0-0.4,0.2-0.4,0.4c0,1.7,0,3.4,0,5.1c0,0.9,0,1.6,0.9,2.1c0.6,0.3,1.1,0.2,1.3,0.4
	c0.1,0.2,0,0.5-0.5,0.5c-1.8,0-3.7,0-5.5,0c-0.5,0-0.6-0.3-0.5-0.5c0.1-0.2,0.6-0.1,1.3-0.4c0.9-0.4,0.9-1.1,0.9-2.1
	c0-3.7,0-7.5,0-11.2c0-0.9,0-1.6-0.9-2.1c-0.6-0.3-1.1-0.2-1.3-0.4c-0.1-0.2,0-0.5,0.5-0.5c1.8,0,3.7,0,5.5,0c0.5,0,0.6,0.3,0.5,0.5
	c-0.1,0.2-0.6,0.1-1.3,0.4c-0.9,0.4-0.9,1.1-0.9,2.1c0,1.5,0,2.9,0,4.4c0,0.2,0.2,0.4,0.4,0.4c3.2,0,6.4,0,9.6,0
	c0.2,0,0.4-0.2,0.4-0.4c0-1.5,0-2.9,0-4.4c0-0.9,0-1.6-0.9-2.1c-0.6-0.3-1.1-0.2-1.3-0.4c-0.1-0.2,0-0.5,0.5-0.5c1.8,0,3.7,0,5.5,0
	c0.5,0,0.6,0.3,0.5,0.5c-0.1,0.2-0.6,0.1-1.3,0.4c-0.9,0.4-0.9,1.1-0.9,2.1c0,3.7,0,7.5,0,11.2c0,0.9,0,1.6,0.9,2.1
	c0.6,0.3,1.1,0.2,1.3,0.4c0.1,0.2,0,0.5-0.5,0.5c-1.8,0-3.7,0-5.5,0c-0.5,0-0.6-0.3-0.5-0.5c0.1-0.2,0.6-0.1,1.3-0.4
	c0.9-0.4,0.9-1.1,0.9-2.1c0-1.7,0-3.4,0-5.1C89.5,36,89.3,35.9,89.1,35.9z"/>
<path d="M107.1,37.6c-2,0-4,0-6,0c-0.1,0-0.3,0.1-0.3,0.2c-0.3,0.8-0.6,1.6-0.9,2.3c-0.4,1-0.4,1.3-0.4,1.7c0,0.5,0.1,1.1,0.9,1.5
	c0.3,0.2,0.6,0.3,0.8,0.3c0.1,0,0.2,0.1,0.2,0.3c0,0.2-0.3,0.2-0.5,0.2c-1.7,0-3.4,0-5.2,0c-0.1,0-0.4,0-0.4-0.3
	c0-0.1,0.1-0.2,0.3-0.3c0.4-0.2,0.7-0.3,1.2-0.7c0.4-0.4,0.9-1.2,1.2-1.7c2.1-4.8,4.2-9.6,6.3-14.4c0.1-0.3,0.3-0.6,0.6-0.6
	c0.2,0,0.4,0.3,0.6,0.6c2.2,4.9,4.4,9.8,6.6,14.7c0.2,0.4,0.6,1,0.8,1.3c0.3,0.3,0.5,0.6,0.9,0.8c0.3,0.1,0.4,0.1,0.4,0.4
	c0,0.1-0.1,0.2-0.5,0.2c-1.7,0-3.5,0-5.2,0c-0.3,0-0.7,0-0.7-0.3c0-0.2,0.1-0.2,0.2-0.3c0.4-0.2,0.8-0.2,1.1-0.6
	c0.5-0.5,0.3-1,0.2-1.3c-0.6-1.3-1.1-2.7-1.7-4C107.3,37.7,107.2,37.6,107.1,37.6z"/>
<path fill="#FFFFFF" stroke="#000000" stroke-miterlimit="10" d="M104.4,30.7c0.8,1.8,1.5,3.6,2.3,5.3c0.1,0.2-0.1,0.5-0.3,0.5
	c-1.5,0-3,0-4.6,0c-0.3,0-0.4-0.3-0.3-0.5c0.8-1.8,1.5-3.6,2.3-5.3C103.9,30.4,104.3,30.4,104.4,30.7z"/>
<path fill="#FFFFFF" stroke="#000000" stroke-miterlimit="10" d="M137,35c0-1.8,0-3.7,0-5.5c0-0.7,0.2-1.8,1.9-1.8
	c2.8,0,4.8,1.9,4.8,4.6c0,2.4-1.7,3.9-4,3.9c-0.6,0-1.6-0.1-2.6-0.8C137.1,35.2,137,35.1,137,35z"/>
<path d="M120.2,42.4c1,0.9,2.3,1.1,3.3,1.1c1,0,2-0.2,3-0.9c1-0.7,1.6-1.8,2.1-2.8c0.1-0.3,0.3-0.8,0.7-0.8c0.1,0,0.5,0.1,0.5,0.7
	c-0.2,1.3-0.5,2.7-0.7,4c0,0.1,0,0.2-0.1,0.3c-0.1,0.3-0.2,0.4-0.5,0.4c-0.9,0-1.7,0-2.6,0c-3.2,0-6.4,0-9.7,0
	c-0.5,0-0.6-0.3-0.5-0.5c0.1-0.2,0.6-0.1,1.3-0.4c0.9-0.4,0.9-1.1,0.9-2.1c0-3.7,0-7.5,0-11.2c0-0.9,0-1.6-0.9-2.1
	c-0.6-0.3-1.1-0.2-1.3-0.4c-0.1-0.2,0-0.5,0.5-0.5c1.9,0,3.9,0,5.8,0c0.6,0,0.5,0.4,0.5,0.5c-0.2,0.3-0.6,0-1.5,0.4
	c-0.9,0.5-0.9,1.1-0.9,2.1c0,4,0,8,0,12C120.1,42.2,120.2,42.3,120.2,42.4z"/>
<path d="M153.8,42.4c1.3,1,2.6,1.1,3.9,1.1c0.9,0,1.7,0,2.9-1c0.7-0.5,1.3-1.3,1.6-2.1c0.2-0.5,0.3-0.8,0.7-0.8
	c0.4,0,0.4,0.4,0.4,0.5c-0.2,1.2-0.3,2.3-0.5,3.5c0,0.1,0,0.2-0.1,0.3c-0.1,0.3-0.2,0.4-0.5,0.4c-0.9,0-1.7,0-2.6,0
	c-3.3,0-6.6,0-9.9,0c-0.5,0-0.6-0.3-0.5-0.5c0.1-0.2,0.6-0.1,1.3-0.4c0.9-0.4,0.9-1.1,0.9-2.1c0-3.7,0-7.5,0-11.2
	c0-0.9,0-1.6-0.9-2.1c-0.6-0.3-1.1-0.2-1.3-0.4c-0.1-0.2,0-0.5,0.5-0.5c3,0,6,0,9,0c0.9,0,1.8,0,2.7,0c0.1,0,0.2,0.1,0.3,0.2
	c0,0,0,0,0,0.1c0,0,0,0,0,0c0.2,0.9,0.3,1.8,0.5,2.7c0.1,0.3,0.2,0.8,0.2,1c0,0.4-0.1,0.7-0.4,0.7c-0.2,0-0.3-0.1-0.6-0.5
	c-0.3-0.5-0.8-1.2-1.1-1.7c-1-1.2-2.2-1.6-3.1-1.6c-0.6,0-1.2,0-1.8,0c-1.6,0-1.7,1.1-1.7,1.7c0,1.6,0,3.1,0,4.7
	c0,0.2,0.2,0.4,0.4,0.4c0.6,0,1.3,0,1.9,0c1.1,0,2.3-0.6,3-1.6c0.3-0.5,0.3-0.6,0.5-0.9c0-0.1,0.1-0.2,0.3-0.2
	c0.2,0,0.3,0.1,0.4,0.3c0,1.8,0,3.7,0,5.5c0,0.2-0.1,0.3-0.4,0.3c-0.1,0-0.2,0-0.3-0.2c-0.2-0.3-0.1-0.5-0.5-0.9
	c-0.7-1-1.9-1.6-3-1.6c-0.6,0-1.3,0-1.9,0c-0.2,0-0.4,0.2-0.4,0.4c0,2.1,0,4.2,0,6.3C153.7,42.2,153.7,42.3,153.8,42.4z"/>
<path fill="#FFFFFF" stroke="#000000" stroke-miterlimit="10" d="M171.5,34.9c0-1.8,0-3.6,0-5.5c0-0.7,0.1-1.7,1.8-1.7
	c3,0,4.4,1.4,4.4,3.4c0,1.1-0.4,2.1-1.4,2.9c-1.2,1-2.7,1.3-4.4,1.2C171.7,35.2,171.5,35.1,171.5,34.9z"/>
<path d="M199.8,27.3c3.3,4.2,6.7,8.4,10,12.6c0.2,0.3,0.6,0.1,0.6-0.2c0-3.2,0-6.4,0-9.5c0-0.9-0.2-1.7-0.9-2.1
	c-0.6-0.4-1.1-0.2-1.2-0.4c-0.1-0.2,0-0.5,0.5-0.5c1.5,0,3.1,0,4.6,0c0.5,0,0.6,0.3,0.5,0.5c-0.1,0.2-0.6,0.1-1.2,0.4
	c-0.5,0.3-0.9,0.8-0.9,2.1c-0.1,4.6-0.2,9.2-0.2,13.8c0,0.6-0.3,0.8-0.6,0.8c-0.3,0-0.5-0.3-0.6-0.5c-3.4-4.3-6.8-8.5-10.2-12.8
	c-0.2-0.3-0.6-0.1-0.6,0.2c0,3.2,0,6.4,0,9.6c0,1.4,0.5,1.9,0.9,2.1c0.6,0.3,1.1,0.2,1.2,0.4c0.1,0.2,0,0.5-0.5,0.5
	c-1.5,0-3.1,0-4.6,0c-0.5,0-0.6-0.3-0.5-0.5c0.2-0.2,0.6,0,1.2-0.4c0.7-0.4,0.9-1.3,0.9-2.1c0.1-3.8,0.2-7.6,0.2-11.5
	c0-0.1,0-0.2-0.1-0.2c-0.4-0.5-1-1-1.9-1.4c-0.8-0.4-1-0.3-1.4-0.5c-0.1-0.1-0.2-0.2-0.2-0.3c0-0.1,0.1-0.3,0.4-0.3
	c1.4,0,2.7,0,4.1,0C199.6,27.1,199.7,27.2,199.8,27.3z"/>
</svg>
